<!-- 2025 Jean Decroocq -->
<svg width="1024" height="1024" viewBox="0 0 270.933 270.933" xml:space="preserve" xmlns="http://www.w3.org/2000/svg"><path style="display:inline;fill:#101010;fill-opacity:1;stroke-width:.0736408" d="M71.039 298.69c-.49-.203-1.693-.92-1.687-1.161.004-.18.812-.84 1.052-1.048.596-.517 1.453-1.2 1.797-1.2.488-.001 3.208 2.212 3.044 2.458-.462.692-3.316 1.32-4.206.95m22.293-1.437c-1.404-.532-1.59-.653-3.03-1.355-.88-.429-2.269-1.084-2.476-1.448-.185-.323 3.535-2.55 5.313-3.348.814-.365 1.565-.765 2.25-1.035.693-.272.892-.284 1.442.267.991.993 2.042 2.252 2.975 3.3.57.643.718.825.214 1.058-1.226.567-2.309.995-3.558 1.543-1.874.823-2.761 1.158-3.13 1.018m-36.849-1.977c-.449-.059-1.371-.296-2.193-.433-1.784-.296-1.879-.474-1.424-.861 1.271-1.08 4.147-2.866 4.617-2.866.616 0 3.336 2.024 3.336 2.483 0 .189-2.06 1.242-2.958 1.64-.39.174-.363.17-1.378.037m62.356-1.505c-2.208-.364-4.063-.794-6.36-1.186-.962-.165-1-.075 1.067-2.504 2.35-2.76 2.583-3.006 4.095-2.36 1.498.64 7.035 3.464 6.974 3.891-.042.295-3.476 1.77-4.257 2.035a3.4 3.4 0 0 1-1.52.124m-82.467-1.61c-.7.268-1.17.145-1.993-.02-2.053-.408-3.88-1.01-5.704-1.357-.767-.146-1.29-.402-1.148-.54 1.988-1.913 3.75-3.879 5.767-5.449.44-.343 1.078-.15 1.643.115 2.342 1.102 5.054 2.337 7.233 3.83.737.506.647.623-1.273 1.418-1.574.652-3.397 1.57-4.525 2.002m106.643-.93c-1.292-.349-4.565-2.17-4.832-2.334-.746-.459-.37-.562.168-.911 1.793-1.167 4.24-2.739 5.008-3.154 1.324-.715 1.83-1.055 2.438-.606 1.419 1.049 2.796 2.328 4.333 3.615 1.082.906 1.353 1.14.384 1.462-1.696.56-3.3 1.064-4.983 1.674-.963.35-1.786.45-2.516.253m-70.02-1.496c-2.412-1.057-5.185-2.268-7.388-3.29-.637-.296-1.326-.618-1.958-.787-.653-.175-.753.139-1.347.368-.184.07-.945.27-1.175.308-.549.091-4.61.136-6.714-.002-5.154-.338-7.346-1.53-11-2.288-.901-.187-.834-.32 1.014-2.208q2.196-2.245 1.942-2.405c-.198-.126-1.669-.37-2.23-.395-1.824-.078-3.79-.286-5.34-.362-2.274-.112-2.204-.07-4.122-2.42-2.707-3.319-2.52-3.038-2.154-3.24 2.43-1.346 4.864-2.373 7.346-3.516 3.94-1.816 3.563-1.878 5.769.296 1.673 1.648 1.43 1.572 3.622 1.624.991.024 2.233.073 2.76.11 3.271.227 3.564.167 3.57-.733 0-.059.335-.87.743-1.805 1.274-2.912 1.645-4.05 1.946-5.969.155-.985 1.39-2.049 5.152-4.666 2.91-2.025 2.094-1.495 5.098-5.675.428-.596.451-.646.073-1.037-2.858-2.945-6.065-7.732-7.887-11.402-.57-1.149-.806-1.29-2.007-1.49-16.678-2.784-25.093-14.489-29.593-24.47-6.888-15.28-7.516-30.575-14.58-43.42-1.18-2.146-4.644-6.902-11.484-9.943-6.715-2.984-10.648-1.768-10.742-5.976-.106-4.763 9.881-7.38 16.81-8.332 12.221-1.679 15.934.82 21.334 8.992 6.24 9.442 11.19 25.022 22.045 33.07.734.544 1.036.257 1.144-.746.99-9.205 11.404-39.523 17.186-54.164 6.162-15.602 37.314-22.591 49.921-24.69 1.174-.196.939-.31-.19-1.507-.904-.956-1.47-1.37-2.975-2.469-2.885-2.106-5.252-3.835-5.362-7.191-.308-9.31 12.848-11.989 20.24-11.992 7.898-.004 15.99 3.577 16.026 8.597.026 3.669-.83 4.65-2.592 6.95-.617.805-1.244 1.592-3.19 3.588-1.58 1.62-1.823 2.418-.803 2.37 10.208-.47 45.046-.724 53.964 13.822.49.799.704.777 1.558.43 10.273-4.17 23.433-8.661 35.616-6.9 8.544 1.234 17.213 6.704 19.61 17.17 1.49 6.516 1.745 14.957-1.204 25.687-3.4 12.366-10.128 25.98-19.283 38.185-.817 1.088-.712.978-.595 2.54 1.425 19.065-7.958 34.794-19.871 44.718-1.93 1.608-1.885 1.452-2.258 2.683-2.713 8.954-11.097 16.903-26.41 23.885-.137.063-.169.184-.05.16 6.216-1.27 12.265-3.305 17.065-6.534 1.337-.9 1.287-.72 3.136-.676 10.65.25 42.3 1.357 42.77 5.892.53 5.116-37.304 10.288-111.748 11.954-3.318.074-4.163.158-3.57.791.804.859 1.115 1.905 1.614 2.929.125.255.122.406-.325.411-1.624.019-3.895.033-4.635.161-.532.092-2.94.25-3.233.177-.248-.063-.375-.265-1.23-1.962-.783-1.557-.943-1.833-1.275-1.904-1.548-.333-2.71-.235-4.283-.456-1.63-.228-1.595-.193-4.906 3.04-1.492 1.456-1.475 1.377-4.394 1.579-2.98.205-5.624.32-8.215.503-1.57.11-2.885-.865-3.984-1.03-1.084-.163-1.777.073-3.592 1.577-.847.7-1.908 1.295-2.453 1.383-5.208.838-10.56 1.853-15.284 2.353-.59.063-.926-.024-1.443-.25m2.276-4.146c4.074-1.197 7.714-2.276 11.728-3.442 3.163-.92 2.75-.804 2.977-2.026.374-2.028.19-3.52.877-5.479.308-.875.356-.934-1.067-2-1.542-1.155-4.39-3.065-5.887-4.213-.758-.581-.732-.56-1.038-.25-5.026 5.102-10.405 10.029-15.71 14.122-.814.628-.796.66.207.951 1.795.52 4.88 1.824 6.312 2.396.509.204.73.2 1.6-.06m-12.88-5.641c.773-.795.701-.662.082-.976-1.124-.57-2.143-1.056-3.172-1.732-.977-.642-.858-.634-2.148.381-1.48 1.164-1.887 1.24-4.324 2.78-.988.625-1.397.834-1.697.994-.714.38-.56.737-.108.977 1.031.548 2.375.547 3.47.656 2.155.216 4.468.477 4.606.413.272-.129.294-.406 2.508-2.686zm43.248 1.414c1.4-.236 1.432-.232.672-.72-1.286-.826-2.574-1.569-4.04-2.545-.352-.236-.515-.306-1.027-.306-1.177 0-1.618.047-2.885.03-.68-.01-.696.107-.476.608.172.39.91 1.911 1.303 2.833.164.385.78 1.243 1.119 1.175 1.294-.262 3.777-.813 5.334-1.075m-36.882-8.43c2.62-2.65 6.092-7.375 9.1-11.006.784-.947.669-.966.652-1.891-.069-3.852.022-7.56-.002-9.383-.007-.479.016-.465-.743-.923-.715-.433-1.767-1.157-2.448-1.534-.637-.352-.542-.406-1.091.614-.297.55-.927 1.494-1.968 2.946-.371.518-2.002 2.978-2.899 4.344-1.73 2.635-1.285 2.168-3.457 3.6-3.65 2.406-3.503 2.284-3.865 4.39-.366 2.13-.705 4.234-1.327 6.334-.499 1.685-.574 1.492.59 1.686 2.053.344 4.492.58 5.89.811 1.073.178 1.245.18 1.568.012m28.183-1.709c1.75-.32 2.923-.816 4.703-1.054.73-.098.93-.34.605-.799-.367-.516-.503-.764-3.118-6.054-.594-1.202-1.085-2.142-1.298-2.485-.123-.197-.265-.158-.827.22-2.73 1.838-5.438 3.777-8.237 5.54-.486.305-.538.235.86 1.14 1.242.805 3.677 2.43 4.685 3.128.954.66.981.665 2.627.364m29.435-1.094c0 .442-.782-.88-1.157-1.192-1.319-1.102-2.012-1.973-2.137-2.68-.206-1.17-.486-2.387-.623-3.522-.158-1.308-.552-1.75-4.172-4.653-.399-.32-1.164-.951-2.148-1.773-.318-.265-.318-.265-1.179-.22-2.747.145-3.372.21-3.714.008-2.517-1.495-4.095-2.728-6.117-4.557-.87-.788-.896-.806-1.002-.618-.999 1.77-1.605 3.569-2.453 5.318-.614 1.269-.638 2.469.04 4.02.68 1.552 1.44 3.085 2.173 4.549.789 1.571 1.188 2.047 1.66 2.249 1.217.52 2.326 1.12 3.539 1.593.407.158 1.135.04 1.284-.017 1.618-.625 2.927-1.2 4.42-1.745 2.077-.76 2.617-.711 4.04-.068 2.25 1.016 4.035 1.929 6.242 2.943.426.195 1.316.573 1.377.58.029.002-.073-.355-.073-.216m12.937-4.217c-1.715-2.308-3.033-4.043-4.885-6.138-.383-.432-.288-.926-.05-1.562.492-1.322.911-2.703 1.372-3.977.776-2.148 1.144-2.59 1.79-2.59.091 0 1.612-.49 3.475-1.117a82 82 0 0 1 2.799-.906 64 64 0 0 0 2.454-.84c.504-.19.496-.172.258-.292-.543-.273-1.137-.374-1.701-.57-.64-.223-3.986.318-4.699.598-1.2.471-2.574.705-3.824 1.038-.742.198-2.554.124-3.556-.11-1.644-.383-3.22-.638-4.824-1.254-.514-.198-.726.01-1.714 1.943-.794 1.551-.794 1.552-1.07 1.928-.53.72-.879.898-2.901 1.49-.998.291-1.899.589-2.909.886-.762.225-.932.313-.385.66.27.171 1.298.962 2.927 2.547 2.324 2.26 2.097 2.144 4.385 2.245 5.202.23 5.586.347 8.071 2.173 1.354.995 2.736 2.068 3.89 3.134.775.715.957.857 1.126.874.032.003.019-.069-.03-.16 0 0 1.56 2.1 0 0m-24.5-12.427a14 14 0 0 0 2.71-.51c1.872-.554 3.547-1.099 5.184-1.625.5-.161.655-.642.893-1.031.754-1.23 1.244-2.492 1.7-3.444.55-1.148.494-.893-.75-4.362-.75-2.088-1.692-4.152-2.328-6.37-.184-.642-.342-.911-1.291-.898-2.02.03-7.133-.606-10.3-.706-.657-.02-.571.268-.852.932-1.438 3.401-2.356 7.173-3.634 10.678-.675 1.851-.933 1.081 2.523 4.518 3.042 3.025 3.136 3.068 6.145 2.818m36.127-7.61c-1.309-1.302-1.272-1.12-.094-1.558 11.11-4.127 60.219-19.67 61.982-48.431 1.206-19.665-18.318-47.435-26.245-59.536-.337-.513-.9-.86-.04-1.456 5.296-3.682 7.343-7.488 5.825-11.311-.803-2.022-2.882-4.667-2.676-3.111 1.92 14.515-36.258 24.672-62.558 25.535-8.89.292-48.248.584-50.404-13.035-.173-1.094-.356-1.212-.63-.755-.57.952-1.068 2.794-1.068 3.946.003 3.203 2.282 5.76 7.42 8.327 2.95 1.473 6.634 2.625 10.848 3.734 1.367.36 3.937.835 3.899 1.064-.02.124-.552.169-1.28.082-5.06-.61-10.25-1.326-14.92-3.379-1.77-.779-2.774-1.344-4.346-2.203-.361-.197-.376-.192-1.074 1.739-5.205 14.408-9.785 29.917-12.669 42.529-.216.947-.258.856.635 1.877 5.329 6.097 8.084 10.961 10.26 18.374.455 1.55 1.078 4.526 1.218 5.712.103.87.582 1.403 3.177 3.718 1.73 1.543 3.468 3.085 5.325 4.472.527.395.735.517 1.153-.86.22-.723.426-1.485.558-2.18.242-1.274.428-1.92.66-2.277.274-.425 2.952-3.563 4.162-4.866 2.224-2.396 4.4-5.088 6.383-7.23.419-.453.43-.514.288-.887-1.049-2.752-2.338-6.576-3.075-8.82-1.109-3.378-3.153-6.615-4.748-9.343-.663-1.133-.872-1.41-2.238-1.777-2.856-.768-5.002-1.93-7.61-3.26-.583-.298-.46-.416.221-.215 1.595.47 2.749.702 4.223 1.081.697.18 1.088.27 2.54.585 2.22.483 2.788.855 4.087 2.572.98 1.295 2.096 2.654 2.917 3.744.68.904.866 1.067 1.162 1.023.186-.027 1.037-.437 1.409-.666 2.528-1.552 5.236-3.268 6.864-4.503 2.23-1.692 2.313-1.527 2.446-3.305.06-.815.105-1.74.106-2.515.001-.715.018-.607.818-1.832 1.987-3.04 3.59-5.621 5.183-8.469.515-.92-.464-2.35-4.54-7.503-1.124-1.42-1.793-2.5-2.558-4.426-.771-1.942-1.539-3.707-2.245-5.695-.477-1.342-.304-1.27.468.199.73 1.388 1.017 1.92 1.078 1.998.062.077.678 1.199 1.234 2.246 1.036 1.95 1.446 2.58 2.017 3.323 1.769 2.3 3.634 4.234 5.264 6.334 1.055 1.36 1.237 1.49 1.698 1.199.164-.103 2.133-2.365 2.601-2.988.48-.64.689-.683.42-.035-.6 1.443-1.315 2.746-2.082 4.133-1.792 3.244-4.315 7.961-6.29 10.976-.653.995-.38.692-.56 2.916-.259 3.19-.004 1.952-2.966 4.744-1.392 1.313-3.38 2.764-5.148 3.941-1.812 1.208-3.458 1.853-3.561 2.24-.123.458.69 2.135.817 2.504 1.35 3.908 4.524 10.787 4.303 11.363-.194.506-8.957 10.937-10.356 12.343-.296.298-.308.363-.03 1.164 1.316 3.789 3.877 13.24 3.975 13.902.098.667-.015 1.073 1.533 1.145 1.825.085 4.509.571 7.636 1.199 1.193.239 1.022.352 2.106-.96.323-.39 2.31-2.7 2.894-3.49.072-.097.566-.343 1.134-.36 1.481-.043 9.425.81 11.453 1.086.856.116.841.174 1.339-.386.757-.854 4.001-4.686 5.68-6.677.554-.657.98-1.065 1.906-1.413 2.381-.897 6.64-2.952 8.95-3.95.218-.094.832-.266 1.343-.2 2.373.307 6.16.789 7.866 1.013.097.013.55.162 1.312-.728.001-.002 6.852-9.536 9.673-13.068.485-.608.522-.661 1.105-.606.2.019 4.996.64 6.61.852.216.028.622.068 1.143-.034 2.886-.565 3.966-.784 9.78-1.466.522-.06.934-.117 1.212-.187 1.15-.288.52.177-1.224.653-2.748.75-8.272 1.902-9.366 2.162-.665.159-1.088.272-1.751.24-1.84-.089-5.514-.202-5.673-.21-.227-.011-.316.028-.406.14-.647.813-8.849 12.393-9.153 12.782-.359.46-.458.52.28.966 1.683 1.017 3.24 1.758 4.11 3.182.341.558 1.816 2.872 2.385 3.55.527.625 1.122.872 1.364.94 3.558 1.01 6.482 2.193 7.556 2.407 1.33.265-1.378.16-1.642.156-.44-.006-6.216-1.239-6.73-1.371-1.02-.263-1.177-.443-1.72-1.01-.645-.677-2.035-2.475-2.647-3.08-1.086-1.071-4.084-2.627-4.46-2.842-.726-.413-1.028-.448-1.685-.472-1.005-.037-4.983-.272-7.24-.509-.984-.103-.915-.055-1.593.282-3.316 1.649-4.61 2.102-7.63 3.438-.715.316-.78.354-1.364 1.055-1.109 1.33-3.542 4.471-5.144 6.158-.789.83-.898.688-.34 1.996 1.473 3.45 2.95 8.852 3.127 9.428.309 1 .425.764 1.162.943 1.77.429 4.332 1.19 4.782 1.31 1.875.5 2.477.228 4.659-.347 1.418-.373 5.282-.686 6.083-.511 1.184.258 3.256 1.362 3.28 1.375 2.289 1.214 4.728 2.142 7.034 3.301.58.291.656.308.146-.253-1.611-1.773-2.835-3.177-4.508-4.841m-4.16-83.992c.71-.972 8.043-11.495 8.552-12.124 1.24-1.534 1.335-1.353.378.24-.221.368-1.38 2.46-2.76 4.844-1.96 3.386-4.332 7.394-4.787 8.177-.408.701-.215.385-.998 1.28-1.423 1.628-6.6 6.619-8.613 8.657-.481.488-.458.621-.736 1.506-.456 1.45-3 8.517-3.535 10.25-.014.046 7.946 2.06 9.47 2.367.517.103.596.007 1.14-.279 2.802-1.47 5.553-2.925 8.132-4.14.787-.372.69-.443 1.955-.434.116 0 4.926.095 6.43.14.281.008.658-.09 1.102-.246 4.002-1.418 4.315-1.203.14.827-1.235.6-.844.57-1.848.606-1.737.06-5.492.124-5.794.15a3.7 3.7 0 0 0-1.52.476c-1.813.992-6.616 3.944-8.544 5.142-.84.521-.686.469-1.33.369-2.903-.451-8.857-1.201-10.12-1.674-.488-.182-.583.102-.764.26-2.154 1.885-6.211 4.129-10.48 6.919-.824.537-1.125.493-2.086 2.563-.727 1.565-2.436 4.818-3.364 6.674-.102.204-.134.275.123.487 1 .824 4.057 4.5 4.421 5 .1.137.924 1.313 2.13 1.994 2.082 1.176 5.16 3.165 6.01 3.808.294.222.288.367.315.799.016.252.024.5-.063.923-.17.833-.245.826-.268-.508-.005-.272.013-.25-.315-.458-.305-.194-6.346-3.343-7.145-3.759-.492-.257-.837-.449-1.603-1.185-1.6-1.538-3.986-4.336-4.418-4.78-.285-.294-.544-.118-.71-.07-1.603.46-5.823 1.78-7.114 2.33-.324.139-.41.4-.422.515-.133 1.2-.335 4.667-.492 5.916-.152 1.211-.775 2.176-.916 2.343-1.11 1.319-2.488 2.577-3.033 3.084-.23.213-.515.29-.264-.147.23-.404 2.44-3.644 2.5-3.732.158-.228.212-.61.235-.716.156-.707.384-7.117.498-7.984.08-.607.268-.676.477-.804.71-.438 5.53-2.34 5.635-2.382.646-.26.725-.42.995-.925a316 316 0 0 0 5.23-10.193c.444-.912.415-.906 1.21-1.451 4.53-3.107 9.804-5.959 10.294-6.263.485-.301.452-.299.745-.96.536-1.21 4.662-11.895 5.252-12.945.18-.32.253-.422.592-.701 2.94-2.427 7.005-6.456 9.855-9.48.12-.127.11-.147.226-.306m-69.215 76.463c1.677-2.002 3.554-4.11 5.054-5.926.8-.968.756-.717.626-3.535-.169-3.66-.164-3.704-1.063-4.377-2.362-1.77-4.23-4.036-6.426-5.744-.452-.352-.475-.242-.41.773.147 2.262-.1 4.926-.544 6.922-.74 3.318-2.317 6.907-3.873 8.817-.449.55-.387.604 2.263 2.18.958.57 1.924 1.125 2.872 1.712.561.348.513.357 1.5-.822m-6.76-19.667c.173-4.895-1.938-13.569-4.956-18.233-.116-.179-.322-.274-1.825-.531-7.736-1.323-14.881-5.537-20.13-11.726-6.085-7.174-11.84-20.69-15.583-27.569-2.542-4.67-7.311-10.263-9.448-9.318-4.527 2.003-8.822 2.321-13.657 2.713-4.263.346-9.175.877-7.224 1.055 5.221.475 12.022.768 16.285 1.819 3.867.952 6.026 2.433 7.884 5.098 2.026 2.904 3.743 6.419 5.326 10.567 3.286 8.612 6.307 18.736 9.946 26.363 3.583 7.509 9.668 14.194 16.291 17.417 5.239 2.548 10.868 3.378 15.055 3.368 1.758-.004 2.007-.207 2.036-1.023m159.538-32.063c.5-4.196.057-9.05-1.698-14.399-.17-.516-.17-.53.194-1.178 4.197-7.495 11.132-24.88 7.382-34.12-2.163-5.33-5.7-6.313-12.834-4.594-5.697 1.372-11.15 3.732-15.561 5.89-.546.266-.439.404-.286.656 9.477 15.662 19.463 33.471 21.995 48.558.375 2.236.613.826.808-.813M126.14 142.583c23.371-1.154 54.869-9.008 55.115-18.327.166-6.237-23.632-10.756-33.664-11.263-2.426-.123-5.282-.295-5.43-.184-.103.078-.094.347-.128.53-.365 2.032-6.12 3.24-9.166 3.617-2.824.35-9.942.135-10.103-2.31-.033-.51-.251-.631-.952-.452-11.734 2.998-36.854 10.115-37.285 18.654-.39 7.707 24.984 10.556 41.613 9.735m79.584-11.975c4.817-2.319 23.073-9.637 34.552-6.685.163.042.2-.028-.066-.181-10.732-6.197-30.52 1.66-34.906 3.45-1.829.747-2.38 1.081-2.029 1.469.12.132.79 1.21 1.161 1.867.286.506.339.51 1.288.08M130.89 98.606c6.865-.808 11.87-2.618 11.39-4.927-.28-1.353-4.703-3.33-13.178-2.956-4.59.203-11.36 2.588-11.375 5.238-.019 3.547 11.403 2.852 13.163 2.645m31.959 189.807c-1.944-.456-1.965-.687-.194-2.111 2.171-1.747 2.25-1.76 3.794-.607.45.335 1.024.75 1.275.92 1.173.798 1.405 1.156.887 1.363-.753.302-4.973.62-5.762.435M22.304 276.577c.429-.104.693.162 1.201.835.444.588 1.016 1.345 1.403 1.927 1.552 2.34 1.872 2.362-1.244 2.388-2.254.019-3.022.08-3.61.027-.497-.045-1.384-.306-2.374-.546-4.115-.994-2.827-1.246-1.76-1.835 1.973-1.09 4.686-2.382 6.384-2.796" transform="translate(12.41 -57.03)"/></svg>
